<svg xmlns="http://www.w3.org/2000/svg" xml:space="preserve" style="enable-background:new 0 0 50 50" version="1.0" viewBox="0 0 50 50"><path d="M22.2 22.7 10.3 39.3c1 1 2.2 1.9 3.5 2.6l12-16.5-3.6-2.7zm-5.8 3.2-3.5-2.6-6.8 9.3c0 .1.1.2.1.3 0 .1.1.2.1.3 0 .1.1.2.1.2.1.2.1.3.2.5 0 0 0 .1.1.1.4 1 1 2 1.6 2.9l8.1-11zM40.9 5.7 42.6 7l-3.9 5.3L16.5 43c1.5.5 3.1.8 4.8.8h.5l6.2-8.6L46.3 9.8l2 1.5.7-9.4-8.1 3.8z" style="fill-rule:evenodd;clip-rule:evenodd;fill:#ec6530"/><path d="M41.7 27.9c-1.1 27-39.6 27-40.7 0C.9 10.3 22.1 1 34.9 12.7l-2.6 3.6c-9.9-9.6-27-2.5-26.9 11.5 0 8.8 7.1 15.9 15.9 15.9 9.1 0 16.4-7.6 15.9-16.7l3.6-5c.6 1.9.9 3.8.9 5.9z" style="fill-rule:evenodd;clip-rule:evenodd;fill:#6a3c93"/></svg>